<svg width="32" height="32" viewBox="0 0 32 32" fill="none" xmlns="http://www.w3.org/2000/svg">
<path d="M12.1253 28.008C11.2869 27.9626 10.498 27.597 9.92134 26.9867C9.23146 26.323 8.61584 25.5862 8.08534 24.7893C7.25664 23.6027 6.60159 22.3038 6.14 20.932C5.61761 19.4562 5.34279 17.9041 5.32667 16.3387C5.28609 14.8026 5.66648 13.2847 6.42667 11.9493C6.98343 10.9868 7.77759 10.183 8.73334 9.61468C9.67852 9.04876 10.7571 8.74415 11.8587 8.73201C12.6891 8.78114 13.5051 8.97095 14.272 9.29334C14.884 9.56268 15.5267 9.75201 16.1867 9.85601C16.9147 9.7035 17.6261 9.48022 18.3107 9.18934C19.1209 8.87299 19.9787 8.69583 20.848 8.66534C20.964 8.66534 21.0787 8.66534 21.1893 8.67868C23.096 8.73334 24.8693 9.66934 25.9893 11.212C25.1152 11.6795 24.3879 12.3803 23.8882 13.2364C23.3885 14.0924 23.1359 15.0703 23.1587 16.0613C23.1499 16.8191 23.3019 17.5701 23.6046 18.2649C23.9073 18.9597 24.3538 19.5824 24.9147 20.092C25.4253 20.5784 26.0198 20.9682 26.6693 21.2427C26.536 21.6427 26.3827 22.0293 26.22 22.4187C25.8507 23.279 25.395 24.0997 24.86 24.868C24.3541 25.6377 23.7653 26.3495 23.104 26.9907C22.5008 27.5892 21.6968 27.9423 20.848 27.9813C20.1285 27.9495 19.4216 27.7807 18.7653 27.484C18.0576 27.1757 17.297 27.0068 16.5253 26.9867C15.7319 27.0023 14.9488 27.1702 14.2187 27.4813C13.5881 27.7659 12.9143 27.943 12.2253 28.0053L12.1253 28.008ZM16.3253 8.66534C16.2253 8.66534 16.1253 8.66534 16.0253 8.65334C16.0043 8.49463 15.9932 8.33477 15.992 8.17468C16.0356 6.84286 16.5561 5.57099 17.4587 4.59068C17.9635 4.02728 18.5754 3.56996 19.2587 3.24534C19.8954 2.91755 20.5913 2.72035 21.3053 2.66534C21.3253 2.84001 21.3253 3.01068 21.3253 3.17334C21.3066 4.48423 20.814 5.74404 19.9387 6.72001C19.5148 7.28831 18.9717 7.75694 18.3475 8.093C17.7233 8.42907 17.0331 8.62442 16.3253 8.66534Z" fill="black"/>
</svg>
