<?xml version="1.0" encoding="utf-8"?>
<svg version="1.1" xmlns="http://www.w3.org/2000/svg" xmlns:xlink="http://www.w3.org/1999/xlink" x="0px" y="0px"
	 viewBox="0 0 500 500" style="enable-background:new 0 0 500 500;" xml:space="preserve">
<g id="OBJECTS">
	<g>
		<ellipse style="opacity:0.4;fill:#D1E3F5;" cx="395.736" cy="372.305" rx="75.541" ry="9.455"/>
		<ellipse style="opacity:0.4;fill:#D1E3F5;" cx="93.392" cy="365.446" rx="74.521" ry="9.955"/>
		<path style="opacity:0.4;fill:#D1E3F5;" d="M192.176,347.082c0,3.129-14.506,5.665-32.399,5.665
			c-17.894,0-32.399-2.536-32.399-5.665c0-3.129,14.506-5.665,32.399-5.665C177.67,341.417,192.176,343.953,192.176,347.082z"/>
		<path style="opacity:0.4;fill:#D1E3F5;" d="M256.607,347.082c0,3.129-14.506,5.665-32.399,5.665
			c-17.894,0-32.399-2.536-32.399-5.665c0-3.129,14.506-5.665,32.399-5.665C242.101,341.417,256.607,343.953,256.607,347.082z"/>
		<path style="opacity:0.4;fill:#D1E3F5;" d="M322.857,347.082c0,3.129-14.506,5.665-32.399,5.665
			c-17.894,0-32.399-2.536-32.399-5.665c0-3.129,14.506-5.665,32.399-5.665C308.351,341.417,322.857,343.953,322.857,347.082z"/>
		<path style="opacity:0.4;fill:#D1E3F5;" d="M384.232,347.082c0,3.129-14.506,5.665-32.399,5.665
			c-17.894,0-32.399-2.536-32.399-5.665c0-3.129,14.506-5.665,32.399-5.665C369.727,341.417,384.232,343.953,384.232,347.082z"/>
		<g>
			<polygon style="fill:#6E6442;" points="179.794,347.601 183.316,347.601 181.555,264.788 175.44,264.788 178.131,315.983 
				140.264,315.983 142.956,264.788 136.841,264.788 135.08,347.601 138.602,347.601 140.055,319.963 178.341,319.963 			"/>
			<path style="fill:#A89866;" d="M170.763,287.759h-23.13c-8.25,0-14.937-6.688-14.937-14.937v-55.59
				c0-8.25,6.688-14.937,14.937-14.937h23.13c8.25,0,14.937,6.688,14.937,14.937v55.59
				C185.7,281.071,179.012,287.759,170.763,287.759z"/>
			
				<line style="fill:none;stroke:#574F34;stroke-width:0.5427;stroke-miterlimit:10;" x1="140.055" y1="319.963" x2="140.264" y2="315.983"/>
			
				<line style="fill:none;stroke:#574F34;stroke-width:0.5427;stroke-miterlimit:10;" x1="178.341" y1="319.963" x2="178.131" y2="315.983"/>
		</g>
		<g>
			<path style="fill:#525252;" d="M124.649,193.198c-0.624-1.726-2.045-2.795-3.172-2.388c-1.127,0.408-1.535,2.138-0.911,3.864
				c0.404,1.118,1.142,1.954,1.918,2.296c0.304,0.134,0.535,0.385,0.641,0.7l3.933,11.787c0.195,0.584,0.832,0.892,1.411,0.683l0,0
				c0.579-0.209,0.871-0.854,0.648-1.427l-4.517-11.576c-0.121-0.309-0.103-0.65,0.045-0.947
				C125.021,195.43,125.053,194.315,124.649,193.198z"/>
			<path style="fill:#525252;" d="M156.817,168.852c7.054-0.142,12.007,8.005,13.364,12.686c1.357,4.681,6.512,15.196,5.902,19.266
				c-0.611,4.07-11.125,4.545-14.857,4.477c-3.731-0.068-12.821,1.764-16.688,0.611c-3.867-1.153-7.53-1.9-6.852-6.241
				c0.678-4.342,5.223-13.349,6.037-17.223C144.538,178.553,146.709,169.055,156.817,168.852z"/>
			<path style="fill:#E67F53;" d="M158.507,207.314c3.503,0.613,5.45-2.957,8.378-3.016c2.928-0.059,7.903,2.202,10.707,4.463
				c2.804,2.261,5.724,9.751,8.108,15.91c2.384,6.16,5.731,16.132-2.5,16.132s-50.833,0-52.823,0c-1.99,0-2.623-8.995,1.085-16.132
				c3.708-7.137,7.704-14.024,9.949-16.837c2.917-3.655,7.89-4.123,11.849-3.537C157.219,204.882,154.889,206.681,158.507,207.314z"
				/>
			<path style="fill:#E08C79;" d="M163.979,188.003c0,0,1.221-1.719,2.623-1.131c1.402,0.588,0.904,2.849,0,4.116
				s-1.945,2.985-3.03,1.854C162.487,191.711,163.979,188.003,163.979,188.003z"/>
			<path style="fill:#FFB3A3;" d="M146.387,182.892c0.362-0.814,6.784-0.724,7.326-1.357c0.543-0.633,1.266-5.156,1.266-5.156
				s0.362,4.251,2.352,4.794c1.99,0.543,6.693,0.904,7.326,2.623c0.633,1.718-0.814,8.231-1.176,11.306s0,7.146,0.271,7.96
				c0.271,0.814,4.161,2.261,4.161,2.261s-4.07,9.769-10.13,9.769c-6.06,0-7.542-10.764-7.542-10.764s1.663-0.724,1.843-1.628
				c0.181-0.905-0.271-3.334-0.271-3.334s-3.392-1.686-4.703-3.631c-1.109-1.645-1.854-5.472-0.724-9.226
				C146.786,185.186,146.387,182.892,146.387,182.892z"/>
			<ellipse style="fill:#FF9B9B;" cx="159.912" cy="188.432" rx="1.896" ry="1.548"/>
			<ellipse style="fill:#FF9B9B;" cx="148.512" cy="189.34" rx="1.614" ry="1.317"/>
			
				<path style="fill:none;stroke:#D18371;stroke-width:0.3078;stroke-linecap:round;stroke-linejoin:round;stroke-miterlimit:10;" d="
				M151.814,199.367c1.402,0.485,5.694,0.89,9.678-2.364"/>
			<path style="fill:#525252;" d="M156.653,184.905c0,0.637-0.253,1.153-0.565,1.153c-0.312,0-0.565-0.516-0.565-1.153
				c0-0.637,0.253-1.153,0.565-1.153C156.4,183.752,156.653,184.268,156.653,184.905z"/>
			<path style="fill:#525252;" d="M150.506,184.905c0,0.637-0.253,1.153-0.565,1.153c-0.312,0-0.565-0.516-0.565-1.153
				c0-0.637,0.253-1.153,0.565-1.153C150.253,183.752,150.506,184.268,150.506,184.905z"/>
			<path style="fill:none;stroke:#525252;stroke-width:0.5427;stroke-miterlimit:10;" d="M154.572,182.531c0,0,1.719-1.357,3.935,0"
				/>
			<path style="fill:none;stroke:#525252;stroke-width:0.5427;stroke-miterlimit:10;" d="M148.512,183.073c0,0,1.176-1.04,2.804,0"
				/>
			
				<path style="fill:none;stroke:#D18371;stroke-width:0.3078;stroke-linecap:round;stroke-linejoin:round;stroke-miterlimit:10;" d="
				M152.608,185.617c0,0,0.317,1.719-0.271,1.99c-0.588,0.271-1.402,0.362-1.402,0.995s1.758,0.904,1.758,0.904"/>
			
				<path style="fill:none;stroke:#D18371;stroke-width:0.3078;stroke-linecap:round;stroke-linejoin:round;stroke-miterlimit:10;" d="
				M149.375,190.716c0,0,4.571,2.7,10.082-0.736"/>
			<path style="fill:none;stroke:#A85D3C;stroke-width:0.4982;stroke-miterlimit:10;" d="M172.346,213.646
				c-0.362,1.673,0,1.809,0,3.256c0,1.447,0.181,5.337,0.543,7.372s0.136,4.477,0.317,4.93"/>
			<path style="fill:none;stroke:#A85D3C;stroke-width:0.4982;stroke-miterlimit:10;" d="M168.576,231.809
				c0,0-0.436-1.747,0.695-2.244c1.131-0.497,2.755-0.555,3.888-0.594c1.132-0.039,3.077-0.944,4.163-1.034
				c1.085-0.09,2.623,0.271,2.623,0.271"/>
			<path style="fill:none;stroke:#A85D3C;stroke-width:0.4982;stroke-miterlimit:10;" d="M143.108,212.244
				c1.696,2.51,1.696,6.716,1.628,10.854c-0.068,4.138-2.646,7.259-2.307,10.176c0.339,2.917-0.475,7.53-0.475,7.53"/>
			<path style="fill:#FFA08D;" d="M128.455,209.123c-0.494-1.975,0.407-6.512-1.425-7.53c-1.832-1.018-1.967-0.475-3.121-0.882
				c-1.153-0.407-3.121-0.407-3.46,0.746c-0.339,1.153-0.271,5.163,0.95,7.127c1.221,1.964,1.967,3.999,2.306,5.966
				c0.339,1.967,0.814,26.253,7.801,26.253c6.987,0,4.477-12.618,3.731-15.06C134.492,223.301,128.997,211.294,128.455,209.123z"/>
			<path style="fill:#FFB3A3;" d="M171.735,231.17c2.848-0.075,8.276,9.633,2.442,9.633c-5.834,0-34.326,0-34.326,0
				s1.357-4.477,5.427-4.342s1.425,0.882,6.445,0C156.743,235.58,169.158,231.238,171.735,231.17z"/>
		</g>
		<g>
			<g>
				<g>
					<path style="fill:#90CF7D;" d="M154.319,217.929c0,0,2.205-5.193,3.381-5.242c1.176-0.049,0.09,3.162,0.226,3.026
						c0.136-0.136,3.03-5.065,4.477-4.884c1.447,0.181-1.719,5.291-1.719,5.291s2.94-2.406,3.799-2.017
						c0.859,0.389-5.082,6.034-5.082,6.034L154.319,217.929z"/>
					<g>
						<path style="fill:#FAF895;" d="M140.653,220.136c0,0,2.807-7.45,8.668-7.45c5.862,0,9.286,7.45,9.286,7.45H140.653z"/>
						<path style="fill:none;stroke:#C7C576;stroke-width:0.4982;stroke-miterlimit:10;" d="M142.142,220.136
							c0,0,0.479-1.686,2.41-3.349c1.932-1.663,2.663-2.884,5.079-2.658c2.416,0.226,5.853,3.491,6.441,4.749
							c0.588,1.258,0.588,1.258,0.588,1.258"/>
						<path style="fill:none;stroke:#C7C576;stroke-width:0.4982;stroke-miterlimit:10;" d="M143.6,220.136
							c0,0,1.866-2.784,2.849-3.395c0.984-0.611,2.646-1.594,3.663-1.289c1.018,0.305,2.544,1.54,3.222,2.313
							c0.678,0.774,0.984,2.371,0.984,2.371"/>
						<path style="fill:none;stroke:#C7C576;stroke-width:0.4982;stroke-miterlimit:10;" d="M146.144,220.136
							c0,0,1.357-2.784,2.815-2.852c1.459-0.068,3.426,2.075,3.629,2.852"/>
					</g>
				</g>
				<path style="fill:#FFFFFF;" d="M157.349,225.258h-13.952c-2.791,0-5.054-2.263-5.054-5.054v-1.609h24.06v1.609
					C162.403,222.995,160.14,225.258,157.349,225.258z"/>
			</g>
			<path style="fill:#FFB3A3;" d="M102.267,336.988c0,0,3.407,19.085,2.925,21.437c-0.483,2.352-1.387,5.246,0.331,5.879
				c1.719,0.633,14.291-0.271,17.276,0c2.985,0.271,7.055-0.452,7.417-1.719c0.362-1.266-10.673-4.975-12.753-7.598
				c-2.08-2.623-4.613-18.362-4.613-18.362L102.267,336.988z"/>
			<path style="fill:#FFB3A3;" d="M62.672,333.899c0,0-4.183,15.078-4.364,16.682c-0.181,1.604,3.347,7.845,5.427,9.744
				c2.08,1.899,3.618,3.256,3.166,3.98c-0.452,0.724-6.693-0.09-11.94-2.894c-5.246-2.804-9.678-8.614-9.497-10.594
				c0.181-1.979,2.508-3.675,3.528-6.23c2.17-5.439,2.148-9.113,2.555-11.375L62.672,333.899z"/>
			<path style="fill:#525252;" d="M104.166,214.88c0,0,7.358,82.869,7.93,90.097c0.572,7.228,2.2,33.64,2.2,33.64
				s-14.472,0.724-16.281,0s-4.342-22.974-4.884-29.668c-0.543-6.693-7.055-30.663-7.055-30.663s-21.075,58.493-21.799,58.352
				c-0.724-0.141-17.005,1.046-17.186,0c-0.181-1.045,17.095-47.951,18.542-54.463c1.447-6.512,1.628-23.517,2.533-36.723
				c0.905-13.206,2.65-32.766,2.65-32.766L104.166,214.88z"/>
			<path style="fill:none;stroke:#9E9E9E;stroke-width:0.4982;stroke-miterlimit:10;" d="M86.076,278.286
				c-1.538-4.975-2.442-9.95-2.985-12.12s-3.075-8.322-3.437-10.04c-0.362-1.719-0.724-5.608-0.724-5.608"/>
			<path style="fill:#8F4F33;" d="M98.694,162.147c0,0,10.99,50.2,9.362,53.456s-30.919,2.858-37.624,1.487
				c-4.616-0.944-0.5-53.767,7.776-55.847C86.483,159.162,96.252,154.142,98.694,162.147z"/>
			<path style="fill:#525252;" d="M115.518,121.173c1.335,3.432,0.775,11.399-2.424,14.442c-3.199,3.043-4.993,5.852-4.993,8.661
				c0,2.809,0.078,4.213-3.745,4.213c-3.823,0-14.434,0-14.434,0s-4.213-1.794-2.965-9.207c1.248-7.412-2.029-15.683,9.129-19.662
				C107.242,115.641,114.118,117.576,115.518,121.173z"/>
			<path style="fill:#FFB3A3;" d="M131.188,212.686c0,0,2.51,3.799,6.105,4.477c3.595,0.678,11.125,0.611,10.922,1.492
				s-4.274,0.95-4.545,2.171c-0.271,1.221,7.462,3.867,7.123,4.613c-0.339,0.746-8.683,0.475-12.55-1.764
				c-3.867-2.239-10.651-6.377-10.651-6.377L131.188,212.686z"/>
			<path style="fill:#E67F53;" d="M88.382,140.914c0,0,8.887,3.595,9.769,4.07c0.882,0.475,0.339,3.392,0,4.613
				c-0.339,1.221,2.569,11.261,2.569,11.261l12.898,29.645c0,0,19.743,20.623,19.64,21.98c-0.103,1.357-4.444,8.683-5.258,8.548
				c-0.814-0.136-23.065-18.452-25.643-21.844c-2.578-3.392-3.663-5.291-3.663-5.291s1.357,37.989-5.156,68.381
				c0,0-31.612,3.142-36.768-1.821c-5.156-4.963,7.869-43.26,8.683-58.37c0.814-15.109-0.08-29.794,11.397-53.597
				C79.292,143.424,80.474,137.664,88.382,140.914z"/>
			<path style="fill:#FFB3A3;" d="M111.312,123.14c0,0,0.475,3.663,0,5.698c-0.475,2.035-0.068,2.917,0.543,3.595
				c0.611,0.678-0.407,0.746-1.221,0.814c-0.611,0.882-1.018,2.035-1.018,2.035s-2.573-0.677-4.037-1.479
				c-0.269-0.147-0.583,0.104-0.482,0.394c0.529,1.524,1.302,2.874,2.823,3.663c-0.95,2.103-2.103,4.952-3.867,4.952
				c-1.764,0-5.156-1.967-5.902-1.289c-0.746,0.678-1.357,3.46-1.357,3.46l-7.394-2.51c0,0,2.985-10.108,2.646-14.924
				C91.706,122.733,108.462,117.171,111.312,123.14z"/>
			<path style="fill:none;stroke:#E08C79;stroke-width:0.3078;stroke-miterlimit:10;" d="M96.156,135.727
				c0,0-0.267,3.246,3.815,5.167"/>
			<path style="fill:none;stroke:#A85D3C;stroke-width:0.4982;stroke-miterlimit:10;" d="M100.72,161.243
				c0,0-2.072-4.07-2.976-5.427c-0.904-1.357-2.759-4.07-5.585-4.161c-2.826-0.09-6.354,0.995-6.987,2.713
				c-0.633,1.719-1.176,6.151-1.176,6.151"/>
			<path style="fill:#E6D18A;" d="M95.839,188.533c0,0,4.008-0.478,6.721,0c2.714,0.478,6.671,3.101,7.598,6.651
				c0.406,1.556-0.577,10.805-0.577,10.805s-4.571-3.427-6.658-6.147C100.836,197.123,97.563,193.262,95.839,188.533z"/>
			<path style="fill:none;stroke:#9E9E9E;stroke-width:0.4982;stroke-miterlimit:10;" d="M96.387,333.77c0,0,8.623,0.58,17.608,0"/>
			<path style="fill:none;stroke:#9E9E9E;stroke-width:0.4982;stroke-miterlimit:10;" d="M49.738,331.403
				c0,0,5.822,0.656,16.026,0.193"/>
			<path style="fill:#525252;" d="M130.216,362.586c0.346-1.21-9.708-4.649-12.419-7.241c-1.344,1.483-3.118,3.023-5.038,3.537
				c-2.299,0.616-5.348,0.101-7.567-0.463c0,0.002,0,0.005-0.001,0.006c-0.483,2.352-1.387,5.246,0.331,5.879
				c1.719,0.633,14.291-0.271,17.276,0C125.784,364.576,129.854,363.852,130.216,362.586z"/>
			<path style="fill:#525252;" d="M63.735,360.324c-1.455-1.328-3.613-4.775-4.72-7.279c-5.77,1.788-9.667-3.667-11.197-6.376
				c-1.047,1.504-2.227,2.759-2.354,4.147c-0.181,1.979,4.251,7.79,9.497,10.593c5.246,2.804,11.487,3.618,11.94,2.895
				C67.353,363.581,65.815,362.224,63.735,360.324z"/>
			<path style="fill:#525252;" d="M115.518,121.173c0,0-0.678,3.12-5.902,3.731c-5.224,0.611-7.666,0.407-8.48,1.764
				c-0.814,1.357-0.678,3.528-1.357,3.053c-0.678-0.475,0.678-2.646,0-3.596c-0.678-0.95-2.578-1.629-3.799-0.645
				s-0.678,4.444-0.611,5.529c0.068,1.085,0.303,1.918,1.253,2.936c0.95,1.018-1.009,5.628-0.642,8.258
				c0.367,2.63,1.967,8.548-3.324,8.548c-5.291,0-9.633,0-14.314,0c-4.681,0-1.832-7.191,1.357-12.414
				c3.188-5.224,7.191-14.178,8.412-19.537s9.9-9.659,19.537-6.512C114.296,114.457,115.518,121.173,115.518,121.173z"/>
			<path style="fill:#3D3D3D;" d="M109.201,129.571c-0.194,0.697-0.572,1.201-0.845,1.126c-0.272-0.076-0.335-0.703-0.141-1.4
				s0.572-1.201,0.845-1.125C109.332,128.247,109.395,128.874,109.201,129.571z"/>
			<path style="fill:none;stroke:#E08C79;stroke-width:0.3078;stroke-miterlimit:10;" d="M107.002,130.655
				c0,0,0.78,0.78,2.476,0.984"/>
			<path style="fill:none;stroke:#E08C79;stroke-width:0.3078;stroke-miterlimit:10;" d="M105.634,132.295
				c0,0-2.493,1.414-3.462,4.088"/>
			<g>
				<path style="fill:#525252;" d="M110.564,128.417c-0.17,0-0.337-0.079-0.443-0.228c-0.838-1.18-2.28-0.688-2.294-0.684
					c-0.282,0.099-0.592-0.048-0.692-0.332c-0.1-0.283,0.049-0.592,0.332-0.692c0.766-0.269,2.493-0.393,3.54,1.08
					c0.173,0.244,0.116,0.583-0.128,0.757C110.782,128.384,110.672,128.417,110.564,128.417z"/>
			</g>
			<path style="fill:none;stroke:#A85D3C;stroke-width:0.4982;stroke-miterlimit:10;" d="M98.694,193.895
				c-2.397-3.618-4.116-8.683-5.653-11.126c-1.538-2.442-3.166-6.603-3.98-8.412c-0.814-1.809-3.256-6.965-3.437-8.141"/>
		</g>
		<g>
			<polygon style="fill:#6E6442;" points="244.804,347.601 248.326,347.601 246.565,264.788 240.45,264.788 243.141,315.983 
				205.274,315.983 207.966,264.788 201.851,264.788 200.09,347.601 203.612,347.601 205.065,319.963 243.351,319.963 			"/>
			<path style="fill:#A89866;" d="M235.773,287.759h-23.13c-8.25,0-14.937-6.688-14.937-14.937v-55.59
				c0-8.25,6.688-14.937,14.937-14.937h23.13c8.25,0,14.937,6.688,14.937,14.937v55.59
				C250.71,281.071,244.022,287.759,235.773,287.759z"/>
			
				<line style="fill:none;stroke:#574F34;stroke-width:0.5427;stroke-miterlimit:10;" x1="205.065" y1="319.963" x2="205.274" y2="315.983"/>
			
				<line style="fill:none;stroke:#574F34;stroke-width:0.5427;stroke-miterlimit:10;" x1="243.351" y1="319.963" x2="243.141" y2="315.983"/>
		</g>
		<g>
			<polygon style="fill:#6E6442;" points="309.814,347.601 313.336,347.601 311.575,264.788 305.46,264.788 308.151,315.983 
				270.284,315.983 272.976,264.788 266.861,264.788 265.1,347.601 268.622,347.601 270.075,319.963 308.361,319.963 			"/>
			<path style="fill:#A89866;" d="M300.783,287.759h-23.13c-8.25,0-14.937-6.688-14.937-14.937v-55.59
				c0-8.25,6.688-14.937,14.937-14.937h23.13c8.25,0,14.937,6.688,14.937,14.937v55.59
				C315.72,281.071,309.033,287.759,300.783,287.759z"/>
			
				<line style="fill:none;stroke:#574F34;stroke-width:0.5427;stroke-miterlimit:10;" x1="270.075" y1="319.963" x2="270.284" y2="315.983"/>
			
				<line style="fill:none;stroke:#574F34;stroke-width:0.5427;stroke-miterlimit:10;" x1="308.361" y1="319.963" x2="308.151" y2="315.983"/>
		</g>
		<g>
			<polygon style="fill:#6E6442;" points="374.824,347.601 378.346,347.601 376.585,264.788 370.47,264.788 373.161,315.983 
				335.294,315.983 337.986,264.788 331.871,264.788 330.11,347.601 333.632,347.601 335.085,319.963 373.371,319.963 			"/>
			<path style="fill:#A89866;" d="M365.793,287.759h-23.13c-8.25,0-14.937-6.688-14.937-14.937v-55.59
				c0-8.25,6.688-14.937,14.937-14.937h23.13c8.25,0,14.937,6.688,14.937,14.937v55.59
				C380.73,281.071,374.043,287.759,365.793,287.759z"/>
			
				<line style="fill:none;stroke:#574F34;stroke-width:0.5427;stroke-miterlimit:10;" x1="335.085" y1="319.963" x2="335.294" y2="315.983"/>
			
				<line style="fill:none;stroke:#574F34;stroke-width:0.5427;stroke-miterlimit:10;" x1="373.371" y1="319.963" x2="373.161" y2="315.983"/>
		</g>
		<g>
			<path style="fill:#525252;" d="M349.019,179.727c5.043,0,9.836,3.256,12.052,4.884c2.216,1.628,7.93,5.263,9.957,9.687
				c2.027,4.424,3.475,9.217,4.56,13.378c1.085,4.161,1.159,7.277-0.506,7.618s-4.74-0.653-5.102,0.794
				c-0.362,1.447-0.814,24.716-0.814,24.716h-44.773c0,0,0.362-28.605-0.362-29.103c-0.724-0.497-3.528,0.95-4.161,0
				c-0.633-0.95,3.28-12.675,4.884-16.98C327.107,188.41,341.715,179.727,349.019,179.727z"/>
			<path style="fill:none;stroke:#363636;stroke-width:0.5427;stroke-miterlimit:10;" d="M333.581,212.198
				c3.935,0.575,3.385-1.933,3.385-1.933s0.904-2.861,1.235-4.308c0.331-1.447,0.672-5.126,0.755-8.05
				c0.052-1.822-2.187-7.928-9.106-7.046"/>
			<path style="fill:none;stroke:#363636;stroke-width:0.5427;stroke-miterlimit:10;" d="M359.036,197.907c0,0,0.362,2.171,0,3.98
				c-0.362,1.809,0,3.075-0.452,4.975c-0.452,1.899,0.613,3.708,0.307,4.839c-0.307,1.131,1.231,2.849,3.492,3.121"/>
			<path style="fill:#FFB3A3;" d="M356.649,156.607c0,0,1.91,3.491,2.305,7.376c0.395,3.886,2.305,12.843-1.153,13.568
				c-3.458,0.725-3.458,0.725-3.458,0.725s0.395,4.413,0.527,5.993c0.132,1.581-11.526,2.766-11.723,0c-0.198-2.766,0-7.443,0-7.443
				s-3.622-8.628-4.61-12.382c-0.988-3.754-0.066-10.275,6.454-12.184C351.512,150.35,355.975,155.182,356.649,156.607z"/>
			
				<path style="fill:none;stroke:#D18371;stroke-width:0.3078;stroke-linecap:round;stroke-linejoin:round;stroke-miterlimit:10;" d="
				M354.242,164.305c0.045,1.628-0.045,2.668,0.995,2.894c1.04,0.226,2.352,0.045,2.216,0.543c-0.136,0.497-1.402,0.859-1.402,0.859
				"/>
			
				<path style="fill:none;stroke:#D18371;stroke-width:0.3078;stroke-linecap:round;stroke-linejoin:round;stroke-miterlimit:10;" d="
				M350.76,170.772c0.136,0.09,1.131,1.176,6.241,0.497"/>
			
				<path style="fill:none;stroke:#D18371;stroke-width:0.3078;stroke-linecap:round;stroke-linejoin:round;stroke-miterlimit:10;" d="
				M344.655,173.795c0,0,1.31,4.36,7.506,4.467"/>
			<path style="fill:#525252;" d="M352.162,165.616c0,0.724-0.314,1.311-0.701,1.311c-0.387,0-0.701-0.587-0.701-1.311
				c0-0.724,0.314-1.312,0.701-1.312C351.848,164.305,352.162,164.892,352.162,165.616z"/>
			<path style="fill:#525252;" d="M357.254,164.943c0,0.724-0.314,1.311-0.701,1.311c-0.387,0-0.701-0.587-0.701-1.311
				c0-0.724,0.314-1.312,0.701-1.312C356.941,163.632,357.254,164.219,357.254,164.943z"/>
			<path style="fill:none;stroke:#525252;stroke-width:0.5427;stroke-miterlimit:10;" d="M349.019,163.25c0,0,2.336-1.055,3.78,0"/>
			<path style="fill:none;stroke:#525252;stroke-width:0.5427;stroke-miterlimit:10;" d="M355.24,162.781
				c0,0,1.376-0.995,2.483-0.359"/>
			<path style="fill:#525252;" d="M344.112,168.115c0,0,1.085-5.355,1.99-6.505c0.905-1.15,1.809,1.112,4.523-0.245
				c2.714-1.357,3.075-2.171,5.427-2.759c2.352-0.588,3.889-3.392,3.889-5.834s-2.623-7.598-6.874-8.05
				c-4.251-0.452-6.693,3.075-8.955,4.432c-2.261,1.357-8.864,4.342-9.859,7.779c-0.995,3.437-2.714,5.427,0.905,10.311
				c3.618,4.884,6.829,6.422,6.965,8.729c0.136,2.307,0.814,2.533,1.266,2.126c0.452-0.407,1.628-4.025,1.176-4.613
				c-0.452-0.588-1.266-0.271-2.171-2.216c-0.905-1.945-1.221-3.889-0.678-4.251S343.75,168.352,344.112,168.115z"/>
			<path style="fill:#FFB3A3;" d="M361.885,212.379c0-1.9,12.754-3.392,12.754-0.678c0,2.714,5.685,29.103-4.416,29.103
				c-10.101,0-40.9,0-40.9,0s3.399-4.266,8.008-4.677c4.61-0.411,7.504,0.132,11.688-0.275c4.183-0.407,14.495-3.392,14.495-3.392
				S361.885,215.635,361.885,212.379z"/>
			<path style="fill:#FFB3A3;" d="M335.021,210.751v10.359c0,0,16.145-18.228,18.316-20.67c2.171-2.442,5.834-6.776,7.055-7.051
				c1.221-0.275-0.842,1.896-0.557,3.117s6.391-0.705,8.155-1.302c1.764-0.597,5.02-1.724,4.884-0.482
				c-0.136,1.242-5.698,6.528-8.412,7.616c-2.714,1.088-4.342,1.088-5.834,2.377c-1.493,1.289-18.859,36.09-29.306,36.09
				c-10.447,0-8.504-27.61-8.119-30.188C321.589,208.038,335.021,207.766,335.021,210.751z"/>
			
				<path style="fill:none;stroke:#D18371;stroke-width:0.3078;stroke-linecap:round;stroke-linejoin:round;stroke-miterlimit:10;" d="
				M336.851,236.599c0,0-4.324,4.204-7.528,4.204"/>
			
				<path style="fill:none;stroke:#D18371;stroke-width:0.3078;stroke-linecap:round;stroke-linejoin:round;stroke-miterlimit:10;" d="
				M334.802,221.456c0,0-3.799,3.324-4.952,5.291"/>
			<path style="fill:#D18371;" d="M376.138,231.337c-2.77,2.325-4.978,3.743-7.869,4.682c-3.618,1.176-18.452,0.814-16.191,3.799
				c0.24,0.317,0.643,0.648,1.16,0.986c6.753,0,13.269,0,16.985,0C374.264,240.803,375.775,236.577,376.138,231.337z"/>
		</g>
		<g>
			<path style="fill:#FFDFD1;" d="M377.175,239.988c-1.266-0.181-1.357-4.026,0.09-8.706c1.447-4.68,6.06-8.298,3.98-16.62
				c0,0-3.075-0.904-6.241-0.904s-6.241,0.904-6.241,0.904c-2.08,8.321,2.533,11.939,3.98,16.62c1.447,4.68,1.357,8.525,0.09,8.706
				c-1.266,0.181-3.289,0.927-2.261,0.927s4.432,0,4.432,0s3.405,0,4.432,0S378.442,240.169,377.175,239.988z"/>
			<path style="fill:#E67F53;" d="M375.004,216.788c-2.985,0-5.698,0.769-5.698,0.769s0.113,2.97,0.724,5
				c0.905,3.005,3.573,5.809,4.975,5.809s4.07-2.804,4.975-5.809c0.611-2.03,0.724-5,0.724-5S377.989,216.788,375.004,216.788z"/>
			<path style="fill:none;stroke:#A85D3C;stroke-width:0.5427;stroke-miterlimit:10;" d="M375.412,224.676l2.378-13.812
				c0.097-0.567,0.442-1.061,0.94-1.348l5.784-3.343"/>
		</g>
		<g>
			<g>
				<path style="fill:#234E7A;" d="M340.154,340.305c1.918,1.827,3.392,5.156,2.442,7.055c-0.95,1.899-8.683,9.769-15.128,11.668
					c-6.445,1.899-7.175-1.029-6.29-3.731C322.064,352.595,335.881,336.235,340.154,340.305z"/>
				<path style="fill:#FFB3A3;" d="M340.629,327.213c0,0-0.204,9.497,0,12.347c0.203,2.849,1.628,2.646,0.882,5.834
					c-0.746,3.188-13.5,14.449-18.248,12.754c-4.749-1.696-0.203-7.123,2.035-10.854c2.239-3.731,5.753-7.807,6.126-11.058
					c0.372-3.251-0.292-8.344-0.292-8.344L340.629,327.213z"/>
				<path style="fill:none;stroke:#234E7A;stroke-width:0.5427;stroke-miterlimit:10;" d="M334.44,354.063
					c0,0-6.428-0.665-8.803,0.42c-0.95-3.731,0.586-8.655,0.586-8.655"/>
				<path style="fill:#234E7A;" d="M325.298,301.163l3.742,27.678c0,0,8.876,2.306,12.947-0.814l-0.136-25.914L325.298,301.163z"/>
			</g>
			<g>
				<path style="fill:#234E7A;" d="M354.111,340.305c-1.918,1.827-3.392,5.156-2.442,7.055c0.95,1.899,8.683,9.769,15.128,11.668
					c6.445,1.899,7.174-1.029,6.29-3.731C372.202,352.595,358.385,336.235,354.111,340.305z"/>
				<path style="fill:#FFB3A3;" d="M353.636,327.213c0,0,0.203,9.497,0,12.347c-0.204,2.849-1.628,2.646-0.882,5.834
					c0.746,3.188,13.5,14.449,18.248,12.754c4.749-1.696,0.204-7.123-2.035-10.854c-2.239-3.731-5.753-7.807-6.125-11.058
					c-0.373-3.251,0.291-8.344,0.291-8.344L353.636,327.213z"/>
				<path style="fill:none;stroke:#234E7A;stroke-width:0.5427;stroke-miterlimit:10;" d="M359.826,354.063
					c0,0,6.428-0.665,8.803,0.42c0.95-3.731-0.586-8.655-0.586-8.655"/>
				<path style="fill:#234E7A;" d="M368.968,301.163l-3.741,27.678c0,0-8.876,2.306-12.947-0.814l0.136-25.914L368.968,301.163z"/>
			</g>
		</g>
		<g>
			<path style="fill:#6E6442;" d="M356.775,369.989c0,1.899-6.135,2.126-13.703,2.126c-7.568,0-13.703,0.95-13.703-1.402
				c0-1.605,6.135-2.035,13.703-2.035C350.64,368.678,356.775,367.276,356.775,369.989z"/>
			<path style="fill:#6E6442;" d="M378.744,366.982c0,1.744-5.632,1.951-12.58,1.951s-12.58,0.872-12.58-1.287
				c0-1.474,5.632-1.868,12.58-1.868S378.744,364.491,378.744,366.982z"/>
			<path style="fill:#FFB3A3;" d="M361.7,350.465c0,0-4.604,12.917-4.604,14.451c0,1.535-0.767,4.348-3.197,4.732
				c-2.43,0.384-20.846,2.941-23.02,1.279c-2.174-1.663,5.434-2.452,9.975-6.906c6.65-6.522,6.65-13.556,6.65-13.556H361.7z"/>
			<path style="fill:none;stroke:#6E6442;stroke-width:0.5427;stroke-miterlimit:10;" d="M336.921,366.326
				c0,0-0.95,0.814-0.95,1.899c2.397-0.045,7.372,2.487,8.231,3.663"/>
			<path style="fill:#FFB3A3;" d="M379.93,349.059c0,0-0.891,11.858-0.891,13.267c0,1.409-0.704,3.992-2.935,4.344
				s-19.137,2.7-21.133,1.174c-1.996-1.526,5.204-2.042,9.158-6.34c3.073-3.34,2.769-12.445,2.769-12.445H379.93z"/>
			<path style="fill:none;stroke:#6E6442;stroke-width:0.4982;stroke-miterlimit:10;" d="M360.518,363.619
				c0,0-0.872,0.747-0.872,1.744c2.201-0.042,6.767,2.283,7.556,3.363"/>
			<path style="fill:#525252;" d="M452.11,270.72c0,0,1.728,25.057-16.824,28.221c-19.628,3.347-49.476,7.355-49.476,7.355
				s0.362,38.775-4.251,42.031s-15.196,3.256-15.196,3.256s-4.613,3.528-8.683,2.985c-4.07-0.543-14.653,0.814-14.11-5.427
				c0.543-6.241,15.908-54.327,20.351-61.733c8.141-13.568,46.895-21.247,48.843-22.929c2.894-2.499,2.058-7.779,2.058-7.779
				L452.11,270.72z"/>
			<path style="fill:none;stroke:#363636;stroke-width:0.5427;stroke-miterlimit:10;" d="M366.362,351.583
				c6.241-5.879,12.405-45.199,19.447-45.287"/>
			<path style="fill:none;stroke:#9E9E9E;stroke-width:0.4982;stroke-miterlimit:10;" d="M437.435,265.202
				c-0.431,2.714-4.548,8.502-6.198,10.673c-1.65,2.171-9.61,8.502-12.685,9.769s-12.844,3.075-16.462,4.07
				c-3.618,0.995-20.824,4.07-23.346,5.698c-2.522,1.628-7.588,3.856-8.673,10.883c-1.086,7.027-8.231,26.021-9,28.916
				c-0.769,2.894-5.472,19.413-5.472,19.413"/>
			<path style="fill:#FFB3A3;" d="M397.161,158.471c-0.338,2.419-1.745,7.471-2.001,8.941c-0.256,1.471,1.087,1.79,2.43,2.75
				c0.576,3.709,2.046,11.574,5.307,12.853c3.261,1.279,7.801,0.576,7.801,0.576l1.884,6.629l12.823-6.757l-4.094-9.886
				c0,0-3.579-1.816-1.469-5.396c2.11-3.581,4.988-10.487-2.494-14.707c-7.481-4.22-14.643-5.883-16.881-3.773
				C398.229,151.81,397.161,158.471,397.161,158.471z"/>
			
				<path style="fill:none;stroke:#D18371;stroke-width:0.3078;stroke-linecap:round;stroke-linejoin:round;stroke-miterlimit:10;" d="
				M399.06,166.182c0,0,4.375,0.034,7.36-1.018"/>
			<path style="fill:#707070;" d="M416.291,171.503c-0.95-0.4-0.678,0.897-2.578,2.073c-1.9,1.176-5.517-1.673-7.734-3.414
				c-2.216-1.741-5.201-0.882-8.39,0c0.576,3.709,2.046,11.574,5.307,12.853c3.261,1.279,7.801,0.576,7.801,0.576
				C418.176,182.343,417.241,171.903,416.291,171.503z"/>
			<path style="fill:none;stroke:#FFFFFF;stroke-width:0.5427;stroke-miterlimit:10;" d="M404.405,163.843
				c0,2.655-1.546,4.807-3.453,4.807c-1.907,0-3.453-2.152-3.453-4.807c0-2.655,1.546-4.807,3.453-4.807
				C402.859,159.036,404.405,161.188,404.405,163.843z"/>
			
				<line style="fill:none;stroke:#FFFFFF;stroke-width:0.5427;stroke-miterlimit:10;" x1="404.094" y1="161.855" x2="414.543" y2="161.365"/>
			<path style="fill:#525252;" d="M400.952,163.229c0,0.894-0.373,1.619-0.833,1.619c-0.46,0-0.833-0.725-0.833-1.619
				c0-0.894,0.373-1.619,0.833-1.619C400.579,161.61,400.952,162.335,400.952,163.229z"/>
			<path style="fill:none;stroke:#525252;stroke-width:0.5427;stroke-miterlimit:10;" d="M398.653,158.335
				c0,0,2.171-1.357,4.93,0.271"/>
			<path style="fill:none;stroke:#FFB3A3;stroke-width:0.5427;stroke-miterlimit:10;" d="M399.06,172.264
				c0,0,1.899,0.452,6.603-0.588"/>
			
				<path style="fill:none;stroke:#D18371;stroke-width:0.3078;stroke-linecap:round;stroke-linejoin:round;stroke-miterlimit:10;" d="
				M406.421,168.115c0,0,2.103,1.526,3.222,5.19"/>
			<path style="fill:#234E7A;" d="M411.407,190.49c2.134-2.647,6.874-6.603,12.12-7.507c5.246-0.905,9.859-0.232,18.135,10.266
				c7.001,8.881,12.075,25.733,14.517,38.215c2.442,12.482,4.342,40.612-1.085,42.964c-5.427,2.352-12.211-6.06-23.879-10.221
				c-11.668-4.161-17.276-0.814-19.809-3.166c-2.533-2.352,2.261-13.206,2.171-17.366c-0.091-4.161-1.426-21.788-1.426-21.788
				s-6.714-0.553-8.139-3.199c-0.429-0.796,0.249-1.425,0.972-7.033C405.708,206.048,406.884,196.098,411.407,190.49z"/>
			<path style="fill:none;stroke:#16314D;stroke-width:0.5427;stroke-miterlimit:10;" d="M418.288,223.112
				c0.934,0,3.282-0.096,4.817-0.163c0.836-0.037,1.537-0.637,1.698-1.458c0.372-1.895,1.04-5.211,1.434-6.631
				c0.568-2.045,3.363-9.35,3.807-12.272c0.697-4.591-0.682-7.386-0.682-7.386"/>
			<path style="fill:#707070;" d="M413.51,166.114c0.061,1.682-2.6,0.678-2.284-2.397c0.317-3.075,1.085-8.05-0.95-9.995
				c-2.035-1.945-6.286-3.799-8.367-2.352c-3.437,2.216-4.206,5.97-4.749,7.1c-2.849-1.673-7.102-5.049-6.603-8.502
				c0.588-4.07,5.156-5.925,8.548-3.754c3.392,2.171,6.06,2.668,10.99,2.442c4.93-0.226,11.035,3.256,12.844,7.055
				c1.809,3.799,1.266,8.819,0.543,11.397c-0.724,2.578-2.623,5.608-2.171,6.467c-2.216-0.588-5.54-3.75-5.902-4.926
				c4.433-0.47,3.301-6.538,1.357-8.167S413.374,162.36,413.51,166.114z"/>
			<path style="fill:#FFB3A3;" d="M405.098,219.434c0,0,1.017,1.221,6.512,1.628s8.887-0.204,9.09,0.475
				s-7.055,19.266-12.007,19.266c-4.952,0-47.622,0-47.622,0s4.07-4.07,6.716-3.935c2.646,0.136,5.427,0.068,5.427,0.068
				l28.492-6.105L405.098,219.434z"/>
		</g>
		<g>
			<path style="fill:#A89866;" d="M450.525,306.295h-55.562v-2.326c0-3.801,3.081-6.882,6.882-6.882h52.842L450.525,306.295z"/>
			<path style="fill:#A89866;" d="M475.494,223.199c-3.459-0.576-6.741,1.791-7.642,5.18l-9.986,37.551
				c-1.133,4.261,2.079,8.439,6.488,8.439h0c3.043,0,5.706-2.047,6.488-4.988l10.059-37.83
				C481.91,227.758,479.461,223.859,475.494,223.199z"/>
			<g>
				<path style="fill:#6E6442;" d="M443.984,308.918h-49.401c-1.799,0-3.256-1.457-3.256-3.256c0-1.799,1.458-3.256,3.256-3.256
					h49.401c4.349,0,8.167-2.935,9.284-7.139l18.145-68.175c0.462-1.738,2.248-2.771,3.983-2.31
					c1.738,0.462,2.773,2.246,2.311,3.984l-18.145,68.175C457.687,303.992,451.281,308.918,443.984,308.918z"/>
			</g>
			<polygon style="fill:#6E6442;" points="444.921,305.625 456.044,370.31 453.602,370.31 436.236,305.625 			"/>
			<polygon style="fill:#6E6442;" points="399.069,305.625 387.946,370.31 390.388,370.31 407.755,305.625 			"/>
			
				<line style="fill:none;stroke:#574F34;stroke-width:0.5427;stroke-miterlimit:10;" x1="400.84" y1="308.678" x2="438.458" y2="309.013"/>
			
				<line style="fill:none;stroke:#574F34;stroke-width:0.5427;stroke-miterlimit:10;" x1="439.996" y1="308.845" x2="445.487" y2="308.845"/>
		</g>
		<g>
			<path style="fill:#A89866;" d="M67.175,306.295h55.562v-2.326c0-3.801-3.081-6.882-6.882-6.882H63.012L67.175,306.295z"/>
			<path style="fill:#A89866;" d="M42.206,223.199c3.459-0.576,6.741,1.791,7.642,5.18l9.985,37.551
				c1.133,4.261-2.079,8.439-6.488,8.439l0,0c-3.043,0-5.706-2.047-6.488-4.988l-10.059-37.83
				C35.789,227.758,38.238,223.859,42.206,223.199z"/>
			<g>
				<path style="fill:#6E6442;" d="M73.716,308.918h49.401c1.799,0,3.256-1.457,3.256-3.256c0-1.799-1.457-3.256-3.256-3.256H73.716
					c-4.349,0-8.167-2.935-9.284-7.139l-18.145-68.175c-0.462-1.738-2.248-2.771-3.983-2.31c-1.738,0.462-2.773,2.246-2.311,3.984
					l18.145,68.175C60.012,303.992,66.419,308.918,73.716,308.918z"/>
			</g>
			<polygon style="fill:#6E6442;" points="72.779,305.625 61.655,370.31 64.098,370.31 81.464,305.625 			"/>
			<polygon style="fill:#6E6442;" points="118.63,305.625 129.753,370.31 127.311,370.31 109.945,305.625 			"/>
			
				<line style="fill:none;stroke:#574F34;stroke-width:0.5427;stroke-miterlimit:10;" x1="116.859" y1="308.678" x2="79.242" y2="309.013"/>
			
				<line style="fill:none;stroke:#574F34;stroke-width:0.5427;stroke-miterlimit:10;" x1="77.704" y1="308.845" x2="72.212" y2="308.845"/>
		</g>
		<g>
			<g>
				<g>
					<path style="fill:#E67F53;" d="M297.134,329.753l-1.275,0.473c-1.787,0.663-3.686-0.659-3.686-2.565v-13.936
						c0-1.946,1.578-3.524,3.524-3.524h0.839c2.877,0,5.259,2.233,5.445,5.104l0.411,6.344
						C302.622,325.215,300.485,328.51,297.134,329.753z"/>
					<path style="fill:#FFB3A3;" d="M293.487,300.297l-0.271,15.686c0,0-0.678,9.414,0.271,12.331c0.95,2.917,3.324,0,3.324,0
						s2.374-0.869,2.985-1.554c0.611-0.685,2.306-2.788,2.239-6.044c-0.068-3.256-1.967-8.751-1.967-8.751l2.714-11.668H293.487z"/>
					<path style="fill:none;stroke:#6E6442;stroke-width:0.5427;stroke-miterlimit:10;" d="M292.173,322.412
						c0,0,3.892,3.256,4.638,5.902c1.696-5.156,3.366-8.069,5.075-9.224"/>
				</g>
			</g>
			<g>
				<g>
					<path style="fill:#E67F53;" d="M284.256,329.753l1.275,0.473c1.787,0.663,3.686-0.659,3.686-2.565v-13.936
						c0-1.946-1.578-3.524-3.524-3.524h-0.839c-2.877,0-5.259,2.233-5.445,5.104l-0.411,6.344
						C278.768,325.215,280.906,328.51,284.256,329.753z"/>
					<path style="fill:#FFB3A3;" d="M287.904,300.297l0.271,15.686c0,0,0.678,9.414-0.271,12.331s-3.324,0-3.324,0
						s-2.374-0.869-2.985-1.554c-0.611-0.685-2.306-2.788-2.239-6.044c0.068-3.256,1.967-8.751,1.967-8.751l-2.714-11.668H287.904z"
						/>
					<path style="fill:none;stroke:#6E6442;stroke-width:0.5427;stroke-miterlimit:10;" d="M289.218,322.412
						c0,0-3.892,3.256-4.638,5.902c-1.696-5.156-3.366-8.069-5.075-9.224"/>
				</g>
			</g>
		</g>
		<g>
			<path style="fill:#DBCFA5;" d="M221.404,336.591c0,0-0.068,5.427,1.085,7.937c1.153,2.51,7.259,11.125,5.495,13.296
				c-1.764,2.171-12.957-3.324-14.178-6.173c-1.221-2.849,0.068-6.513,0-9.497c-0.068-2.985-0.528-6.309-0.528-6.309
				L221.404,336.591z"/>
			<path style="fill:#DBCFA5;" d="M235.447,335.03c0,0-0.046,6.987,1.107,9.497c1.153,2.51,7.259,11.125,5.495,13.296
				c-1.764,2.171-12.957-3.324-14.178-6.173c-1.221-2.849,0.068-6.513,0-9.497c-0.068-2.985-0.528-6.309-0.528-6.309L235.447,335.03
				z"/>
			<path style="fill:#525252;" d="M207.341,300.176l3.277,35.94c0,0,7.146,4.161,14.291,0.814
				c5.427,1.176,11.668-1.266,11.668-1.266l5.789-35.366L207.341,300.176z"/>
			
				<line style="fill:none;stroke:#9E9E9E;stroke-width:0.4982;stroke-miterlimit:10;" x1="224.854" y1="336.206" x2="225.814" y2="301.473"/>
		</g>
		<g>
			<g>
				<path style="fill:#FFB3A3;" d="M171.826,326.09c0,0-0.666,10.609-0.484,11.955c0.182,1.346,2.012,6.066,2.79,7.205
					c0.777,1.139,3.839,2.717,3.244,4.538c-0.595,1.821-8.942-1.08-12.224-2.844c-3.281-1.764-3.044-5.393-2.34-9.129
					c0.704-3.736,0.13-11.313,0.13-11.313L171.826,326.09z"/>
				<path style="fill:#556F8A;" d="M177.376,349.788c0.594-1.821-2.467-3.399-3.244-4.538c-0.633-0.928-1.964-4.229-2.535-6.15
					c-4.741,1.412-7.406-0.326-8.711-1.753c-0.024,0.159-0.046,0.321-0.074,0.468c-0.704,3.736-0.941,7.365,2.34,9.129
					C168.434,348.708,176.781,351.609,177.376,349.788z"/>
				<path style="fill:#556F8A;" d="M160.049,297.515l1.645,30.633c0,0,7.51,2.495,11.87-1.007c1.853-11.311,8.28-39.901,8.28-39.901
					L160.049,297.515z"/>
			</g>
		</g>
		<g>
			<g>
				<path style="fill:#FFB3A3;" d="M147.542,326.09c0,0,0.666,10.609,0.484,11.955c-0.182,1.346-2.012,6.066-2.79,7.205
					c-0.777,1.139-3.839,2.717-3.244,4.538c0.594,1.821,8.942-1.08,12.223-2.844s3.044-5.393,2.34-9.129
					c-0.704-3.736-0.13-11.313-0.13-11.313L147.542,326.09z"/>
				<path style="fill:#556F8A;" d="M141.992,349.788c-0.595-1.821,2.467-3.399,3.244-4.538c0.633-0.928,1.964-4.229,2.535-6.15
					c4.741,1.412,7.406-0.326,8.711-1.753c0.024,0.159,0.046,0.321,0.074,0.468c0.704,3.736,0.941,7.365-2.34,9.129
					S142.587,351.609,141.992,349.788z"/>
				<path style="fill:#556F8A;" d="M159.319,297.515l-1.645,30.633c0,0-7.51,2.495-11.87-1.007
					c-1.853-11.311-8.28-39.901-8.28-39.901L159.319,297.515z"/>
			</g>
		</g>
		<g>
			<path style="fill:#FFDFD1;" d="M187.575,239.988c-1.266-0.181-1.357-4.026,0.09-8.706s6.06-8.298,3.98-16.62
				c0,0-3.075-0.904-6.241-0.904c-3.166,0-6.241,0.904-6.241,0.904c-2.08,8.321,2.533,11.939,3.98,16.62
				c1.447,4.68,1.357,8.525,0.09,8.706c-1.266,0.181-3.289,0.927-2.261,0.927s4.432,0,4.432,0s3.405,0,4.432,0
				C190.864,240.915,188.841,240.169,187.575,239.988z"/>
			<path style="fill:#E67F53;" d="M185.404,216.788c-2.985,0-5.698,0.769-5.698,0.769s0.113,2.97,0.724,5
				c0.905,3.005,3.573,5.809,4.975,5.809c1.402,0,4.07-2.804,4.975-5.809c0.611-2.03,0.724-5,0.724-5
				S188.389,216.788,185.404,216.788z"/>
			<path style="fill:none;stroke:#A85D3C;stroke-width:0.5427;stroke-miterlimit:10;" d="M185.812,224.676l2.378-13.812
				c0.098-0.567,0.442-1.061,0.94-1.348l5.784-3.343"/>
		</g>
		<g>
			<path style="fill:#FFDFD1;" d="M262.843,198.199c-1.266-0.181-1.357-4.026,0.09-8.706c1.447-4.68,6.06-8.298,3.98-16.62
				c0,0-3.075-0.905-6.241-0.905c-3.166,0-6.241,0.905-6.241,0.905c-2.08,8.321,2.533,11.939,3.98,16.62
				c1.447,4.681,1.357,8.525,0.091,8.706c-1.266,0.181-3.289,0.927-2.261,0.927s4.432,0,4.432,0s3.405,0,4.432,0
				S264.109,198.379,262.843,198.199z"/>
			<path style="fill:#E67F53;" d="M260.672,174.998c-2.985,0-5.698,0.769-5.698,0.769s0.113,2.97,0.724,5
				c0.905,3.005,3.573,5.809,4.975,5.809c1.402,0,4.07-2.804,4.975-5.809c0.611-2.03,0.724-5,0.724-5
				S263.657,174.998,260.672,174.998z"/>
			<path style="fill:none;stroke:#A85D3C;stroke-width:0.5427;stroke-miterlimit:10;" d="M261.08,182.886l2.378-13.812
				c0.098-0.567,0.442-1.061,0.94-1.348l5.784-3.343"/>
		</g>
		<g>
			<path style="fill:#453933;" d="M208.69,158.516c-2.787,2.877-3.782,4.07-4.189,8.751c-0.407,4.681,1.153,9.158,0.475,13.228
				c-0.678,4.07-0.882,6.445,3.256,6.852c4.138,0.407,9.949,0.505,14.355-2.239s5.86-6.893,2.672-14.301
				C222.071,163.4,211.319,155.802,208.69,158.516z"/>
			<path style="fill:#556F8A;" d="M222.587,185.108c5.045,0.085,8.095,1.535,11.652,3.385c3.557,1.85,9.036,4.541,11.151,9.156
				c2.115,4.614,7.018,21.053,8.652,25.667c1.634,4.614,4.422,17.487-5.672,17.487c-10.094,0-47.393,0-50.181,0
				c-2.788,0-4.853-4.606-4.349-8.066c0.504-3.461,4.293-14.763,5.214-19.092c0.922-4.329,1.348-11.533,4.326-16.573
				c1.664-2.815,3.566-5.053,4.648-6.039C210.064,189.179,214.3,184.969,222.587,185.108z"/>
			<path style="fill:#88A7C9;" d="M216.975,185.98c1.985,0.889,5.141,0.349,7.233-0.284c2.092-0.633,3.499-2.348,4.308-1.719
				c0.809,0.63,1.266,3.007,1.764,3.584c0.497,0.577,0.95,1.165,0.905,1.979c-0.045,0.814-7.766,46.899-7.766,46.899
				s-3.173-13.217-5.44-25.145c-1.223-6.432-2.014-20.351-2.273-20.984c-0.259-0.633,0.464-0.633,0.419-1.538
				C216.079,187.867,215.791,185.451,216.975,185.98z"/>
			<path style="fill:none;stroke:#2F4F6E;stroke-width:0.5427;stroke-miterlimit:10;" d="M213.32,229.678
				c0,0,2.103-3.053,1.56-4.749c-0.543-1.696-1.832-1.018-2.239-2.917c-0.407-1.899,0.985-6.11,1.164-7.394
				c0.464-3.324-1.561-6.784-1.227-8.073"/>
			<path style="fill:none;stroke:#2F4F6E;stroke-width:0.5427;stroke-miterlimit:10;" d="M234.305,212.56
				c0.09,2.623,1.719,5.246,1.99,7.507c0.271,2.261-0.271,4.726,0.543,7.157c0.814,2.431,0.814,4.396,1.9,7.303"/>
			<path style="fill:#FFB3A3;" d="M209.657,162.518c-1.459,0.998-3.392,3.663-3.053,6.377s1.469,4.41,1.514,6.716
				c0.046,2.307,0.724,6.038,3.234,7.734c2.51,1.696,5.291,1.272,5.291,1.272s0.407,1.645,0.746,3.138
				c0.339,1.492,10.786,0.746,10.311-2.442s-4.206-13.3-4.342-16.961C223.224,164.689,214.315,159.33,209.657,162.518z"/>
			
				<path style="fill:none;stroke:#D18371;stroke-width:0.3078;stroke-linecap:round;stroke-linejoin:round;stroke-miterlimit:10;" d="
				M211.421,172.4c0,0,0.724,2.126,0.362,2.307c-0.362,0.181-0.995,0.181-0.588,0.724c0.407,0.543,1.085,0.497,1.085,0.497"/>
			
				<path style="fill:none;stroke:#D18371;stroke-width:0.3078;stroke-linecap:round;stroke-linejoin:round;stroke-miterlimit:10;" d="
				M210.38,178.234c0,0,3.392,0.769,7.146-2.08"/>
			
				<path style="fill:none;stroke:#D18371;stroke-width:0.3078;stroke-linecap:round;stroke-linejoin:round;stroke-miterlimit:10;" d="
				M216.644,184.617c1.696-0.141,3.957-1.453,4.636-2.312"/>
			<path style="fill:#453933;" d="M214.089,172.294c0.117,0.569-0.019,1.077-0.304,1.136c-0.285,0.058-0.61-0.356-0.726-0.924
				c-0.117-0.569,0.02-1.077,0.304-1.136C213.648,171.312,213.973,171.726,214.089,172.294z"/>
			<path style="fill:#453933;" d="M210.339,173.33c0.117,0.569-0.02,1.077-0.304,1.136c-0.285,0.058-0.61-0.356-0.726-0.924
				c-0.117-0.569,0.019-1.077,0.304-1.136C209.897,172.347,210.222,172.761,210.339,173.33z"/>
			
				<path style="fill:none;stroke:#453933;stroke-width:0.5427;stroke-linecap:round;stroke-linejoin:round;stroke-miterlimit:10;" d="
				M211.861,169.675c0,0,1.051-0.848,2.578-0.339"/>
			
				<path style="fill:none;stroke:#453933;stroke-width:0.5427;stroke-linecap:round;stroke-linejoin:round;stroke-miterlimit:10;" d="
				M209.521,170.388c0,0-1.219-0.147-1.662,0.848"/>
			<path style="fill:#453933;" d="M208.775,163.061c0,0,0.746,1.357,3.324,2.849c2.578,1.492,5.766,1.696,6.784,2.781
				c1.018,1.085,1.492,3.595,2.374,7.191c0.663,2.701,0.814,6.377,2.951,7.666c2.137,1.289,6.886,1.696,10.346-0.407
				c2.029-1.233,4.342-4.118,1.832-7.734c-1.696-2.442-7.801-6.241-9.158-9.701c-1.357-3.46-4.952-10.583-13.296-9.837
				C205.586,156.617,207.635,161.769,208.775,163.061z"/>
			
				<line style="fill:none;stroke:#D18371;stroke-width:0.3078;stroke-linecap:round;stroke-linejoin:round;stroke-miterlimit:10;" x1="217.141" y1="175.632" x2="218.019" y2="176.615"/>
			<path style="fill:#FFB3A3;" d="M210.742,228.253c0.251-0.141,26.728,5.291,29.713,5.291c2.985,0,5.834-0.678,8.208,0
				c2.374,0.678,4.138,4.545,3.324,5.902c-0.814,1.357-7.394,1.357-7.394,1.357s-30.866,0-34.462,0S206.74,230.492,210.742,228.253z
				"/>
			<path style="fill:#FFB3A3;" d="M254.86,203.348c0.894-2.909,0.993-6.374,1.242-7.698c0.248-1.324,2.152-6.291,2.649-4.718
				c0.497,1.573,4.139-3.559,6.539-2.069c2.401,1.49,1.159,6.788,0,8.526c-1.159,1.738-3.559,2.198-3.973,4.906
				c-0.414,2.709-2.235,25.555-2.897,30.107c-0.662,4.553-1.593,8.124-7.71,8.124c-6.117,0-4.293-8.621-2.886-14.829
				C249.232,219.489,254.292,205.199,254.86,203.348z"/>
			<path style="fill:none;stroke:#556F8A;stroke-width:0.5427;stroke-miterlimit:10;" d="M215.649,189.03
				c0,0,1.929,2.878,3.313,3.731c1.284,0.792,2.318,0.974,4.456,0.972c1.556-0.001,4.878-1.628,4.878-1.628"/>
			
				<path style="fill:none;stroke:#D18371;stroke-width:0.3078;stroke-linecap:round;stroke-linejoin:round;stroke-miterlimit:10;" d="
				M246.457,233.87c0,0-0.998,5.564,3.751,6.513"/>
			
				<path style="fill:none;stroke:#D18371;stroke-width:0.3078;stroke-linecap:round;stroke-linejoin:round;stroke-miterlimit:10;" d="
				M260.82,190.712c-0.905,0.436-2.08,1.069-1.719,1.611c0.362,0.543,1.583,0.558,1.583,0.558s-1.583,1.386-1.221,1.929
				c0.362,0.543,1.673-0.226,1.809,0.181c0.136,0.407-0.905,1.266-0.452,1.673c0.452,0.407,1.221,0.271,1.221,0.271
				s-1.691,0.95-1.954,2.849"/>
		</g>
		<g>
			<path style="fill:#D18371;" d="M296.501,193.337c0.63-1.124,1.709-1.272,2.512,0c0.803,1.272-1.405,6.45-2.93,6.169
				C294.558,199.225,295.939,194.34,296.501,193.337z"/>
			<path style="fill:#D18371;" d="M277.867,193.337c-0.63-1.124-1.709-1.272-2.512,0c-0.803,1.272,1.405,6.45,2.93,6.169
				C279.81,199.225,278.429,194.34,277.867,193.337z"/>
			<path style="fill:#617E9C;" d="M288.4,212.017c5.512-0.271,8.78,0.32,8.78,0.32s6.138,1.037,12.741,8.725
				s8.593,11.306,8.593,11.306s-8.593,2.171-8.774,3.799c-0.181,1.628,0,4.636,0,4.636h-50.924c0,0,5.072-11.728,5.976-14.327
				c0.905-2.599,3.256-6.94,4.884-9.021c1.628-2.08,5.42-3.358,10.486-4.895C285.228,211.023,288.4,212.017,288.4,212.017z"/>
			<path style="fill:#FFB3A3;" d="M277.781,195.733c0.455,3.28,0.803,7.184,2.729,9.111c1.927,1.926,2.729,2.288,2.729,2.288
				s0.401,2.408,0.281,3.291c-0.12,0.883-4.696,3.412-4.616,3.933c0.08,0.522,3.371,1.405,9.793,0.843
				c6.422-0.562,8.669-1.525,8.589-1.726c-0.08-0.201-3.893-2.047-4.214-2.81c-0.321-0.763-0.161-5.107-0.161-5.107
				s1.806-1.676,2.649-4.766c0.843-3.09,0.883-6.904,0.883-6.904s0.642-5.218-0.562-6.181s-6.863-1.164-10.355-1.365
				C282.035,186.141,276.617,187.345,277.781,195.733z"/>
			
				<path style="fill:none;stroke:#D18371;stroke-width:0.3078;stroke-linecap:round;stroke-linejoin:round;stroke-miterlimit:10;" d="
				M287.084,195.225c0,0,0.117,2.513,0,2.689c-0.117,0.175-1.286,0.438-1.286,0.994s1.091,0.848,1.656,0.848"/>
			<ellipse style="fill:#453933;" cx="289.905" cy="196.211" rx="0.57" ry="1.279"/>
			<ellipse style="fill:#453933;" cx="284.263" cy="196.211" rx="0.57" ry="1.279"/>
			<ellipse style="fill:#FFFFFF;" cx="287.235" cy="203.116" rx="1.147" ry="1.462"/>
			<path style="fill:none;stroke:#453933;stroke-width:0.4816;stroke-miterlimit:10;" d="M288.382,193.284
				c0,0,1.611-1.613,3.3,0.126"/>
			<path style="fill:none;stroke:#453933;stroke-width:0.4816;stroke-miterlimit:10;" d="M285.343,193.284
				c0,0-1.611-1.613-3.3,0.126"/>
			
				<path style="fill:none;stroke:#D18371;stroke-width:0.3078;stroke-linecap:round;stroke-linejoin:round;stroke-miterlimit:10;" d="
				M283.239,207.132c1.907,1.064,5.579,1.575,8.89-1.104"/>
			<path style="fill:none;stroke:#2F4F6E;stroke-width:0.5427;stroke-miterlimit:10;" d="M301.034,222.148
				c0.068,1.492,1.018,2.171,1.425,3.731c0.407,1.56,0.71,3.059,1.357,4.106c0.647,1.048,1.289,2.474,1.289,2.474"/>
			<path style="fill:none;stroke:#2F4F6E;stroke-width:0.5427;stroke-miterlimit:10;" d="M275.46,227.982
				c0,0-0.339,2.646-0.407,3.935c-0.068,1.289-0.543,4.545-0.678,4.884c-0.136,0.339,0,1.085,0,1.085"/>
			<path style="fill:#FFB3A3;" d="M286.449,236.122c0,0,8.344-2.374,14.11-4.07c5.766-1.696,12.482-2.849,15.806-1.425
				c3.324,1.425,8.412,10.176,1.085,10.176s-26.592,0-31.002,0c-4.41,0-10.176,0-13.635,0c-3.46,0-3.935-1.289-0.611-3.256
				s6.987-3.22,9.836-2.153C284.889,236.462,285.231,236.47,286.449,236.122z"/>
			<path style="fill:#453933;" d="M279.426,189.439c2.278-1.678,7.104-0.877,9.934-0.814c2.83,0.063,4.455-0.664,5.539,0.814
				c1.084,1.477-0.331,5.37,0.392,6.213c0.722,0.843,1.164,1.324,1.224,0c0.06-1.325,0.853-5.218,1.575-6.602
				c0.722-1.385,3.973-2.228,4.395-4.997c0.421-2.77-4.395-4.455-6.502-4.395c-2.107,0.06-3.131-1.385-5.539-1.926
				c-2.408-0.542-4.154,0.886-5.358,1.136s-4.335-0.237-5.9,1.21c-1.565,1.447-1.324,2.591-3.131,3.494
				c-1.806,0.903-2.529,3.125-1.806,5.054c0.723,1.93,2.649,7.83,3.552,8.492C278.704,197.78,278.152,190.379,279.426,189.439z"/>
		</g>
		<g>
			<rect x="128.448" y="245.959" style="fill:#544C32;" width="262.501" height="13.635"/>
			<g>
				<polygon style="fill:#A89866;" points="396.561,248.74 404.771,375.733 396.561,375.733 386.702,248.74 				"/>
				<polygon style="fill:#A89866;" points="122.836,248.74 114.626,375.733 122.836,375.733 132.695,248.74 				"/>
			</g>
			<rect x="113.734" y="240.803" style="fill:#6E6442;" width="291.929" height="10.311"/>
			<path style="fill:#DBCFA5;" d="M384.283,252.777c0-3.29,0.15-7.564,0-11.973H259.699H135.114c-0.15,4.409,0,8.683,0,11.973
				c0,3.29-1.197,9.396-0.748,14.687c0.449,5.291,0.049,8.005,0.324,12.075c0.069,1.017,0.103,2.897,0.116,5.147
				c0.049,8.621,7.227,15.766,16.658,16.821c0.035,0.004,0.069,0.008,0.102,0.012c3.29,0.407,13.161,1.221,15.854,1.221
				c2.692,0,30.81-0.407,34.1,0c3.29,0.407,26.173,0.136,29.613,0c3.44-0.136,24.977,0.294,28.566,0.215
				c3.59,0.079,25.126-0.351,28.566-0.215c3.44,0.136,26.323,0.407,29.613,0c3.29-0.407,31.408,0,34.1,0s12.563-0.814,15.854-1.221
				c0.033-0.004,0.067-0.008,0.102-0.012c9.432-1.055,16.609-8.2,16.658-16.821c0.013-2.249,0.047-4.13,0.116-5.147
				c0.275-4.07-0.125-6.784,0.324-12.075C385.479,262.172,384.283,256.067,384.283,252.777z"/>
			<path style="fill:none;stroke:#FFFFFF;stroke-width:1.0854;stroke-miterlimit:10;" d="M141.458,240.803
				c-0.142,3.992,0,7.862,0,10.841c0,2.979-1.136,8.507-0.71,13.298c0.426,4.791,0.046,7.248,0.307,10.934
				c0.065,0.921,0.098,2.623,0.11,4.66c0.047,7.806,6.859,14.275,15.81,15.231c0.033,0.004,0.065,0.007,0.097,0.011
				c3.123,0.369,12.491,1.106,15.046,1.106c2.555,0,29.241-0.369,32.363,0c3.123,0.368,24.84,0.123,28.105,0
				c3.265-0.123,23.705,0.266,27.111,0.195c3.407,0.072,23.847-0.318,27.112-0.195c3.265,0.123,24.982,0.368,28.105,0
				c3.123-0.369,29.808,0,32.363,0c2.555,0,11.923-0.737,15.046-1.106c0.031-0.004,0.063-0.007,0.097-0.011
				c8.951-0.955,15.763-7.425,15.81-15.231c0.012-2.036,0.045-3.739,0.11-4.66c0.261-3.685-0.119-6.142,0.307-10.934
				c0.426-4.791-0.71-10.319-0.71-13.298c0-2.979,0.142-6.849,0-10.841"/>
			<path style="fill:none;stroke:#FFFFFF;stroke-width:1.0854;stroke-miterlimit:10;" d="M149.174,240.803
				c-0.133,3.469,0,6.832,0,9.421c0,2.589-1.061,7.393-0.663,11.556c0.398,4.163,0.043,6.299,0.287,9.501
				c0.061,0.8,0.091,2.28,0.103,4.049c0.044,6.783,6.411,12.405,14.778,13.236c0.031,0.003,0.061,0.006,0.09,0.009
				c2.919,0.32,11.676,0.961,14.064,0.961c2.388,0,27.332-0.32,30.251,0c2.919,0.32,23.219,0.107,26.271,0
				c3.052-0.107,22.158,0.232,25.342,0.169c3.184,0.062,22.291-0.276,25.342-0.169c3.052,0.107,23.352,0.32,26.271,0
				s27.863,0,30.251,0s11.145-0.641,14.064-0.961c0.029-0.003,0.059-0.006,0.09-0.009c8.367-0.83,14.734-6.453,14.778-13.236
				c0.011-1.77,0.042-3.249,0.103-4.049c0.244-3.203-0.111-5.338,0.287-9.501c0.398-4.164-0.663-8.968-0.663-11.556
				c0-2.589,0.133-5.952,0-9.421"/>
		</g>
		<g>
			<path style="fill:#FFDFD1;" d="M322.006,239.988c-1.266-0.181-1.357-4.026,0.09-8.706c1.447-4.68,6.06-8.298,3.98-16.62
				c0,0-3.075-0.904-6.241-0.904s-6.241,0.904-6.241,0.904c-2.08,8.321,2.533,11.939,3.98,16.62c1.447,4.68,1.357,8.525,0.09,8.706
				c-1.266,0.181-3.289,0.927-2.261,0.927c1.027,0,4.432,0,4.432,0s3.405,0,4.432,0S323.272,240.169,322.006,239.988z"/>
			<path style="fill:#E67F53;" d="M319.835,216.788c-2.985,0-5.698,0.769-5.698,0.769s0.113,2.97,0.724,5
				c0.905,3.005,3.573,5.809,4.975,5.809c1.402,0,4.07-2.804,4.975-5.809c0.611-2.03,0.724-5,0.724-5
				S322.82,216.788,319.835,216.788z"/>
			<path style="fill:none;stroke:#A85D3C;stroke-width:0.5427;stroke-miterlimit:10;" d="M320.243,224.676l2.378-13.812
				c0.097-0.567,0.442-1.061,0.94-1.348l5.784-3.343"/>
		</g>
		<path style="fill:#90CF7D;" d="M215.649,233.486c0,0,9.154-11.682,10.109-11.042c0.955,0.64-2.844,3.099,1.136,2.231
			c3.98-0.868,7.585-7.557,9.627-6.564c2.042,0.993-3.657,5.516-1.034,5.968c2.623,0.452,11.222-5.879,12.802-3.98
			c1.58,1.899-13.984,15.197-13.984,15.197L215.649,233.486z"/>
		<g>
			<circle style="fill:#E6473F;" cx="219.192" cy="228.861" r="4.813"/>
			<path style="fill:#E6473F;" d="M245.979,230.869c0,2-1.621,3.621-3.621,3.621c-2,0-3.621-1.621-3.621-3.621
				c0-2,1.621-3.621,3.621-3.621C244.358,227.248,245.979,228.869,245.979,230.869z"/>
			<path style="fill:#234E7A;" d="M246.262,240.915H213.18c-3.865,0-6.999-3.133-6.999-6.999v-4.239h47.079v4.239
				C253.26,237.782,250.127,240.915,246.262,240.915z"/>
		</g>
		<g>
			<path style="fill:#703E28;" d="M296.543,225.984c0.151-0.166,5.52-3.848,7.493-3.364c1.974,0.484-0.83,5.395-1.192,5.834
				C302.483,228.893,296.543,225.984,296.543,225.984z"/>
			<path style="fill:#8F4F33;" d="M269.829,233.506c2.424-3.631,9.051-7.02,13.105-7.031c4.053-0.012,8.411-3.389,12.971-3.069
				c4.56,0.321,5.573,2.658,9.221,1.945c3.648-0.713,6.037-1.422,6.181,0.822c0.145,2.244-1.383,6.886-2.971,10.625
				c-1.589,3.739-33.002,2.464-36.245,1.384C268.848,237.103,268.918,234.871,269.829,233.506z"/>
			<path style="fill:#90CF7D;" d="M292,235.245c0,0,5.156-4.211,6.241-3.904c1.085,0.307-2.779,3.495-2.779,3.495
				s7.762-5.053,9.273-4.29c1.511,0.762-7.443,5.443-7.443,5.443s16.601-6.205,16.601-5.646s-12.65,6.754-12.65,6.754
				s10.781-1.213,8.464,0.242c-2.318,1.455-16.485,2.111-16.417,1.839C293.357,238.907,292,235.245,292,235.245z"/>
			<path style="fill:#E6473F;" d="M296.025,237.339c0,1.732-2.41,3.135-5.382,3.135s-5.382-1.404-5.382-3.135
				c0-1.732,2.41-3.136,5.382-3.136S296.025,235.608,296.025,237.339z"/>
			<path style="fill:#FAF895;" d="M287.93,237.075c0,0-2.239-3.122-4.884-3.257c-2.646-0.135-1.357,0.77-3.867,0.385
				c-2.51-0.384-2.849-2.014-3.935-0.385c-1.085,1.629-0.043,2.36-0.746,3.521c-0.704,1.161-2.374,1.914,0.611,1.978
				c2.985,0.064,5.766-0.743,7.326,0C283.995,240.06,288.806,238.099,287.93,237.075z"/>
			<path style="fill:#525252;" d="M312.886,240.813h-48.441c-0.836,0-1.514-0.678-1.514-1.514l0,0c0-0.836,0.678-1.514,1.514-1.514
				h48.441c0.836,0,1.514,0.678,1.514,1.514l0,0C314.4,240.135,313.722,240.813,312.886,240.813z"/>
		</g>
	</g>
</g>
</svg>
